<svg width="22" height="21" viewBox="0 0 22 21" fill="none" xmlns="http://www.w3.org/2000/svg">
<path d="M0 11.1117C0 6.63175 3.63175 3 8.11174 3H13.2737C17.7537 3 21.3855 6.63175 21.3855 11.1117C21.3855 15.5917 17.7537 19.2235 13.2737 19.2235H8.11173C3.63174 19.2235 0 15.5917 0 11.1117Z" fill="#4BC0E6"/>
<path d="M15.8106 15.9534C15.3447 16.4121 14.5955 16.4063 14.1368 15.9404L10.8145 12.5661L7.50563 15.824C7.03971 16.2827 6.28917 16.2769 5.83045 15.8109C5.3719 15.345 5.3783 14.5951 5.84415 14.1364L9.15306 10.8786L5.83079 7.50425C5.37206 7.03834 5.37789 6.28918 5.8438 5.83045C6.30973 5.3718 7.05891 5.37757 7.51761 5.84346L10.8399 9.21779L14.2803 5.83043C14.7462 5.37205 15.4955 5.3778 15.9541 5.84344C16.4128 6.30926 16.4074 7.05918 15.9418 7.51794L12.5014 10.9053L15.8236 14.2796C16.2823 14.7455 16.2764 15.4947 15.8106 15.9534Z" fill="white"/>
</svg>
