<svg width="22" height="17" viewBox="0 0 22 17" fill="none" xmlns="http://www.w3.org/2000/svg">
<path d="M0 8.11173C0 3.63175 3.63175 0 8.11174 0H13.2737C17.7537 0 21.3855 3.63175 21.3855 8.11173C21.3855 12.5917 17.7537 16.2235 13.2737 16.2235H8.11173C3.63174 16.2235 0 12.5917 0 8.11173Z" fill="#4BC0E6"/>
<rect x="14.7872" y="0.737305" width="5.89944" height="13.2737" rx="2.94972" transform="rotate(49.1527 14.7872 0.737305)" fill="white"/>
<rect x="14.7872" y="0.737305" width="5.89944" height="2.94972" rx="1.47486" transform="rotate(49.1527 14.7872 0.737305)" fill="#D9D9D9"/>
<path d="M5.58751 13.7359C4.83147 13.8808 4.20211 13.1529 4.45468 12.4257L5.41343 9.66525C5.66599 8.93806 6.61104 8.75697 7.11453 9.33929L9.0258 11.5498C9.52928 12.1322 9.21358 13.0411 8.45753 13.186L5.58751 13.7359Z" fill="#D9D9D9"/>
</svg>
