<svg width="30" height="32" viewBox="0 0 30 32" fill="none" xmlns="http://www.w3.org/2000/svg">
<mask id="path-1-inside-1_76_786" fill="white">
<path d="M12.4639 22.5879C13.5684 22.5879 14.4637 23.4834 14.4639 24.5879V30C14.4638 31.1045 13.5684 32 12.4639 32H2.12305C1.01865 31.9998 0.123101 31.1044 0.123047 30V24.5879C0.123178 23.4835 1.01869 22.5881 2.12305 22.5879H12.4639ZM28 16C29.1046 16 30 16.8954 30 18V30C30 31.1046 29.1046 32 28 32H17.6592C16.5547 31.9999 15.6592 31.1045 15.6592 30V18C15.6592 16.8955 16.5547 16.0001 17.6592 16H28ZM12.3408 0C13.4454 0 14.3408 0.895431 14.3408 2V18.7061C14.3407 19.8105 13.4453 20.7061 12.3408 20.7061H2C0.895648 20.7059 9.27462e-05 19.8104 0 18.7061V2C3.38232e-07 0.895547 0.895591 0.000188906 2 0H12.3408ZM28 0C29.1046 0 30 0.895431 30 2V12.1172C30 13.2218 29.1046 14.1172 28 14.1172H17.6592C16.5547 14.1171 15.6592 13.2217 15.6592 12.1172V2C15.6592 0.895479 16.5547 7.83194e-05 17.6592 0H28Z"/>
</mask>
<path d="M14.4639 24.5879H16.4639V24.5877L14.4639 24.5879ZM14.4639 30L16.4639 30.0001V30H14.4639ZM2.12305 32L2.12276 34H2.12305V32ZM0.123047 30H-1.87695V30.0001L0.123047 30ZM0.123047 24.5879L-1.87695 24.5877V24.5879H0.123047ZM2.12305 22.5879V20.5879H2.12276L2.12305 22.5879ZM17.6592 32L17.659 34H17.6592V32ZM17.6592 16V14H17.659L17.6592 16ZM14.3408 2H16.3408H14.3408ZM14.3408 18.7061L16.3408 18.7062V18.7061H14.3408ZM2 20.7061L1.99966 22.7061H2V20.7061ZM0 18.7061H-2V18.7062L0 18.7061ZM0 2L-2 2V2H0ZM2 0V-2H1.99966L2 0ZM30 2H32H30ZM17.6592 14.1172L17.659 16.1172H17.6592V14.1172ZM15.6592 2L13.6592 2V2H15.6592ZM17.6592 0V-2H17.659L17.6592 0ZM12.4639 22.5879V24.5879V24.5881L14.4639 24.5879L16.4639 24.5877C16.4636 22.379 14.6732 20.5879 12.4639 20.5879V22.5879ZM14.4639 24.5879H12.4639V30H14.4639H16.4639V24.5879H14.4639ZM14.4639 30L12.4639 29.9999V30V32V34C14.6731 34 16.4638 32.209 16.4639 30.0001L14.4639 30ZM12.4639 32V30H2.12305V32V34H12.4639V32ZM2.12305 32L2.12334 30L2.12305 29.9999L0.123047 30L-1.87695 30.0001C-1.87684 32.2092 -0.0857958 33.9997 2.12276 34L2.12305 32ZM0.123047 30H2.12305V24.5879H0.123047H-1.87695V30H0.123047ZM0.123047 24.5879L2.12305 24.5881L2.12334 24.5879L2.12305 22.5879L2.12276 20.5879C-0.0858859 20.5882 -1.87669 22.3789 -1.87695 24.5877L0.123047 24.5879ZM2.12305 22.5879V24.5879H12.4639V22.5879V20.5879H2.12305V22.5879ZM28 16V18H30H32C32 15.7909 30.2091 14 28 14V16ZM30 18H28V30H30H32V18H30ZM30 30H28V32V34C30.2091 34 32 32.2091 32 30H30ZM28 32V30H17.6592V32V34H28V32ZM17.6592 32L17.6593 30H17.6592H15.6592H13.6592C13.6592 32.2092 15.4502 33.9998 17.659 34L17.6592 32ZM15.6592 30H17.6592V18H15.6592H13.6592V30H15.6592ZM15.6592 18H17.6592H17.6593L17.6592 16L17.659 14C15.4502 14.0002 13.6592 15.7908 13.6592 18H15.6592ZM17.6592 16V18H28V16V14H17.6592V16ZM12.3408 0V2H14.3408H16.3408C16.3408 -0.209139 14.55 -2 12.3408 -2V0ZM14.3408 2H12.3408V18.7061H14.3408H16.3408V2H14.3408ZM14.3408 18.7061L12.3408 18.7059V18.7061V20.7061V22.7061C14.5501 22.7061 16.3406 20.915 16.3408 18.7062L14.3408 18.7061ZM12.3408 20.7061V18.7061H2V20.7061V22.7061H12.3408V20.7061ZM2 20.7061L2.00034 18.7061L2 18.7059L0 18.7061L-2 18.7062C-1.99981 20.9152 -0.208824 22.7057 1.99966 22.7061L2 20.7061ZM0 18.7061H2V2H0H-2V18.7061H0ZM0 2L2 2L2.00034 2L2 0L1.99966 -2C-0.208713 -1.99962 -2 -0.209362 -2 2L0 2ZM2 0V2H12.3408V0V-2H2V0ZM28 0V2H30H32C32 -0.209139 30.2091 -2 28 -2V0ZM30 2H28V12.1172H30H32V2H30ZM30 12.1172H28V14.1172V16.1172C30.2091 16.1172 32 14.3263 32 12.1172H30ZM28 14.1172V12.1172H17.6592V14.1172V16.1172H28V14.1172ZM17.6592 14.1172L17.6593 12.1172H17.6592H15.6592H13.6592C13.6592 14.3264 15.4502 16.117 17.659 16.1172L17.6592 14.1172ZM15.6592 12.1172H17.6592V2H15.6592H13.6592V12.1172H15.6592ZM15.6592 2L17.6592 2L17.6593 2L17.6592 0L17.659 -2C15.4502 -1.99984 13.6592 -0.209231 13.6592 2L15.6592 2ZM17.6592 0V2H28V0V-2H17.6592V0Z" fill="#7C7C7C" mask="url(#path-1-inside-1_76_786)"/>
</svg>
