<svg width="30" height="32" viewBox="0 0 30 32" fill="none" xmlns="http://www.w3.org/2000/svg">
<path d="M10.5361 0C8.61201 3.99209e-05 6.8007 0.678995 5.43555 1.91113L2.14062 4.88379V4.88477C0.780397 6.11199 0 7.81564 0 9.55859V22.4443C0 24.1873 0.780323 25.8917 2.14062 27.1191L5.43262 30.0898C6.79778 31.3217 8.60935 32 10.5332 32H19.1816C21.1058 32 22.917 31.321 24.2822 30.0889L27.5742 27.1191C28.9343 25.8914 29.7148 24.1871 29.7148 22.4443V9.55859C29.7148 7.81561 28.9343 6.11211 27.5742 4.88477L24.2793 1.91113C22.9141 0.67911 21.1026 4.02259e-05 19.1787 0H10.5361ZM20.4746 26.5273C20.2818 27.1026 20.2282 27.7163 20.3311 28.3262L20.6338 29.9609C20.1638 30.0814 19.6749 30.1455 19.1816 30.1455V30.1465H10.5332C10.0334 30.1465 9.53828 30.0797 9.0625 29.9561L9.34668 28.2871C9.43589 27.7074 9.38893 27.1279 9.2168 26.584C10.7532 27.7461 12.6945 28.4424 14.8076 28.4424C16.9554 28.4424 18.9266 27.7241 20.4746 26.5273ZM24.833 25.5293L26.4092 25.6104C26.3542 25.6648 26.2974 25.719 26.2393 25.7715L22.9473 28.7422C22.7924 28.882 22.6265 29.0112 22.4541 29.1318L22.2471 28.0176C22.1448 27.4104 22.3376 26.801 22.792 26.3174C23.2985 25.7784 24.0396 25.4895 24.833 25.5293ZM4.83691 25.5283C5.62273 25.4906 6.36151 25.7739 6.86816 26.3057C7.32303 26.7827 7.52081 27.3854 7.42578 28.0029L7.23633 29.1152C7.07274 28.9994 6.91523 28.8755 6.76758 28.7422L3.47559 25.7715C3.39157 25.6957 3.31192 25.617 3.23438 25.5371L4.83691 25.5283ZM14.8076 5.59961C18.7099 5.59961 21.873 8.618 21.873 12.3408V19.8477C21.873 23.5705 18.7099 26.5889 14.8076 26.5889C10.9054 26.5888 7.74219 23.5704 7.74219 19.8477V12.3408C7.74219 8.61803 10.9054 5.59966 14.8076 5.59961ZM22.5225 7.89941C23.176 8.238 23.9168 8.41992 24.6865 8.41992C24.8028 8.41991 24.9197 8.41559 25.0371 8.40723L27.5537 8.21387C27.6963 8.64499 27.7705 9.09694 27.7705 9.55859V22.4443C27.7705 22.9144 27.6947 23.3751 27.5469 23.8135L24.9346 23.6777C24.1057 23.6378 23.3068 23.8059 22.6055 24.1514C23.3748 22.8855 23.8174 21.4162 23.8174 19.8477V12.3408C23.8174 10.7156 23.344 9.19555 22.5225 7.89941ZM7.06934 7.93945C6.26306 9.22697 5.79883 10.732 5.79883 12.3408V19.8477C5.79883 21.4007 6.23301 22.8559 6.98828 24.1133C6.31079 23.7954 5.54718 23.6408 4.76172 23.6758L2.12988 23.6885C2.00815 23.2877 1.94336 22.8703 1.94336 22.4443V9.55859C1.94336 9.09632 2.01817 8.64366 2.16113 8.21191L4.62207 8.40625C4.74174 8.41495 4.86107 8.41894 4.97949 8.41895C5.72094 8.41895 6.43461 8.25229 7.06934 7.93945ZM22.459 2.87402C22.6284 2.99311 22.7918 3.12012 22.9443 3.25781L26.2393 6.23145C26.3135 6.29848 26.3849 6.36725 26.4541 6.4375L24.8877 6.55859C24.0947 6.61382 23.3341 6.33718 22.8115 5.79688C22.3433 5.31257 22.1421 4.69851 22.2451 4.06836L22.459 2.87402ZM7.43262 4.10938C7.52393 4.72244 7.31729 5.33076 6.84863 5.80859C6.32574 6.34148 5.56912 6.61538 4.77441 6.55762L3.26074 6.43848L3.47559 6.23145L6.77148 3.25781C6.91667 3.12687 7.07079 3.00482 7.23145 2.89062L7.43262 4.10938ZM19.1787 1.85449C19.674 1.85452 20.1648 1.91953 20.6367 2.04102L20.3262 3.76953C20.2185 4.42745 20.2885 5.08367 20.5156 5.69043C18.9616 4.47501 16.9739 3.74512 14.8076 3.74512C12.6765 3.74514 10.7193 4.45274 9.17676 5.63281C9.38088 5.06062 9.44576 4.44722 9.35449 3.83496L9.05957 2.04492C9.53701 1.92032 10.0344 1.8545 10.5361 1.85449H19.1787Z" fill="#7C7C7C"/>
</svg>
