<svg width="30" height="32" viewBox="0 0 30 32" fill="none" xmlns="http://www.w3.org/2000/svg">
<path d="M23.3604 18.0088C27.0589 18.1963 30 21.2549 30 25V29L29.9961 29.1543C29.9184 30.6883 28.6883 31.9184 27.1543 31.9961L27 32H3L2.8457 31.9961C1.31166 31.9184 0.0816253 30.6883 0.00390625 29.1543L0 29V25C0 21.2549 2.94111 18.1963 6.63965 18.0088L7 18H23L23.3604 18.0088ZM7 20C4.23858 20 2 22.2386 2 25V29C2 29.5523 2.44772 30 3 30H27C27.5523 30 28 29.5523 28 29V25C28 22.2386 25.7614 20 23 20H7ZM15 0C19.4183 0 23 3.58172 23 8C23 12.4183 19.4183 16 15 16C10.5817 16 7 12.4183 7 8C7 3.58172 10.5817 0 15 0ZM15 2C11.6863 2 9 4.68629 9 8C9 11.3137 11.6863 14 15 14C18.3137 14 21 11.3137 21 8C21 4.68629 18.3137 2 15 2Z" fill="#7C7C7C"/>
</svg>
