<svg width="22" height="8" viewBox="0 0 22 8" fill="none" xmlns="http://www.w3.org/2000/svg">
<path d="M5.30388 7.06891C4.6747 7.07311 4.10877 6.88001 3.6061 6.4896C3.10343 6.0992 2.78404 5.59821 2.64794 4.98661L1.99015 2.05973L1.00158 2.13194L0.840622 0.383006C2.00889 0.27313 3.00869 0.193545 3.84001 0.144251C4.67134 0.0949562 5.41658 0.0681109 6.07572 0.063715C7.04945 0.057221 7.83602 0.0957255 8.43543 0.179229C9.03483 0.262732 9.57445 0.412259 10.0543 0.62781C10.2642 0.728494 10.4629 0.800087 10.6502 0.842587C10.8376 0.885088 11.0136 0.905789 11.1784 0.90469C11.3432 0.903591 11.5042 0.880642 11.6614 0.835844C11.8186 0.791045 12.002 0.724197 12.2115 0.635298C12.7054 0.413253 13.2744 0.252687 13.9183 0.1536C14.5623 0.0545127 15.4161 0.00142241 16.4797 -0.00567106C17.1688 -0.0102668 17.9328 0.00651272 18.7718 0.0446676C19.6108 0.0828224 20.5248 0.142353 21.5137 0.223258L21.36 1.95242L20.3936 1.89324L19.7258 4.89459C19.5922 5.50798 19.2787 6.00956 18.7851 6.39931C18.2916 6.78906 17.7302 6.98604 17.101 6.99023L15.1011 7.00357C14.472 7.00777 13.9173 6.82553 13.4371 6.45685C12.957 6.08818 12.6414 5.61267 12.4904 5.03034L11.8788 2.69378L10.508 2.70292L9.90623 5.04758C9.74269 5.64659 9.42162 6.12998 8.943 6.49776C8.46439 6.86554 7.91798 7.05148 7.30378 7.05557L5.30388 7.06891ZM4.39993 4.62492C4.44529 4.82879 4.55051 4.9958 4.71557 5.12595C4.88063 5.2561 5.06802 5.32047 5.27775 5.31907L7.27765 5.30574C7.48738 5.30434 7.6745 5.24111 7.83903 5.11605C8.00356 4.991 8.10809 4.83353 8.15264 4.64365L8.8437 1.99214C8.43907 1.92192 7.98207 1.87758 7.47268 1.8591C6.9633 1.84062 6.49888 1.83278 6.07942 1.83558C5.73487 1.83788 5.36411 1.84399 4.96714 1.85393C4.57018 1.86387 4.19945 1.88457 3.85495 1.91604L4.39993 4.62492ZM14.2197 4.60318C14.2651 4.79247 14.3703 4.94854 14.5353 5.07139C14.7004 5.19425 14.8878 5.25498 15.0975 5.25358L17.0974 5.24025C17.3071 5.23885 17.4942 5.17197 17.6587 5.03963C17.8232 4.90728 17.9278 4.73887 17.9723 4.53441L18.5508 1.79615C18.2512 1.78357 17.9066 1.77493 17.5171 1.77024C17.1276 1.76554 16.783 1.76419 16.4834 1.76619C16.034 1.76919 15.5359 1.78345 14.9892 1.80897C14.4424 1.83449 13.9519 1.88516 13.5176 1.96097L14.2197 4.60318Z" fill="#4D4D4D"/>
</svg>
