<svg width="14" height="14" viewBox="0 0 14 14" fill="none" xmlns="http://www.w3.org/2000/svg">
<path d="M7.31834 12.4436C9.49521 12.4436 11.2599 10.7601 11.2599 8.68331V5.39896C11.2599 3.32219 9.49521 1.63864 7.31834 1.63864C5.14147 1.63864 3.3768 3.32219 3.3768 5.39896V8.68331C3.3768 10.7601 5.14147 12.4436 7.31834 12.4436ZM7.31834 2.44989C9.02558 2.44989 10.4096 3.77028 10.4096 5.39901V8.68336C10.4096 10.3121 9.02558 11.6325 7.31834 11.6325C5.61111 11.6325 4.2271 10.3121 4.2271 8.68336V5.39901C4.2271 3.77028 5.61111 2.44989 7.31834 2.44989Z" fill="#4D4D4D"/>
<path d="M1.77648 2.13686L3.21803 0.835972C3.8153 0.296896 4.60776 0 5.4496 0H9.23058C10.0723 0 10.8649 0.296896 11.4621 0.835922L12.9038 2.13691C13.4988 2.67388 13.8401 3.41916 13.8401 4.18172V9.81954C13.8401 10.582 13.4988 11.3273 12.9038 11.8644L11.4635 13.1641C10.8663 13.7032 10.0738 14.0001 9.23197 14.0001H5.44825C4.60652 14.0001 3.81396 13.7032 3.21668 13.1642L1.77643 11.8644C1.1813 11.3274 0.840038 10.5821 0.840038 9.81954V4.18172C0.840038 3.41916 1.1813 2.67383 1.77643 2.13691L1.77648 2.13686ZM2.3607 2.72623C2.32812 2.75562 2.29708 2.78592 2.26674 2.81672L2.92898 2.86908C3.27666 2.89435 3.60736 2.77447 3.83613 2.54133C4.04123 2.33226 4.13165 2.06612 4.09169 1.79786L4.00386 1.26451C3.93352 1.3145 3.86597 1.36781 3.8024 1.42514L2.36065 2.72618L2.3607 2.72623ZM12.3196 2.72623L10.8779 1.42524C10.8112 1.365 10.74 1.30928 10.6659 1.25717L10.5721 1.77997C10.5271 2.05566 10.6151 2.32412 10.8199 2.536C11.0486 2.77246 11.3813 2.89345 11.7283 2.86928L12.4134 2.81657C12.3831 2.78582 12.3521 2.75557 12.3196 2.72623ZM12.3195 11.2751C12.345 11.2521 12.3697 11.2286 12.3938 11.2047L11.7044 11.1689C11.3572 11.1515 11.0329 11.2781 10.8113 11.514C10.6125 11.7256 10.5284 11.9919 10.5731 12.2575L10.6636 12.7453C10.7391 12.6925 10.8114 12.636 10.8792 12.5748L12.3195 11.2751ZM9.23197 13.1888C9.44779 13.1888 9.66166 13.1607 9.86731 13.108L9.73464 12.3926C9.64855 11.8819 9.81012 11.3643 10.178 10.9727C10.5716 10.5536 11.1423 10.3296 11.7489 10.3588L12.8916 10.4183C12.9563 10.2265 12.9897 10.0252 12.9897 9.81954V4.18172C12.9897 3.97969 12.9572 3.78202 12.8948 3.59335L11.7938 3.67807C11.7424 3.68174 11.6911 3.68354 11.6402 3.68354C11.0862 3.68354 10.5662 3.47021 10.1948 3.08608C9.81595 2.69428 9.64721 2.17263 9.73285 1.64918L9.8685 0.892799C9.66201 0.83964 9.44724 0.811252 9.23053 0.811252H5.44955C5.23005 0.811252 5.01254 0.840293 4.80365 0.894809L4.93258 1.67792C5.0093 2.19258 4.83593 2.7094 4.45686 3.09573C4.08611 3.47367 3.56975 3.68349 3.0186 3.68349C2.96669 3.68349 2.91438 3.68158 2.86192 3.67777L1.78549 3.5926C1.72292 3.78152 1.69034 3.97944 1.69034 4.18172V9.81954C1.69034 10.0059 1.71844 10.1884 1.7717 10.3637L2.9231 10.3583C3.51699 10.3318 4.08243 10.5524 4.47395 10.9629C4.84206 11.3491 5.00836 11.8616 4.92929 12.3754L4.8047 13.1059C5.01289 13.1601 5.2296 13.1889 5.4483 13.1889H9.23202L9.23197 13.1888ZM2.3607 11.275L3.80095 12.5748C3.86557 12.6331 3.93437 12.6872 4.00596 12.7379L4.08895 12.2514C4.13055 11.9812 4.04387 11.7174 3.84484 11.5087C3.62315 11.276 3.29983 11.1523 2.95598 11.1688L2.25503 11.1723C2.28901 11.2073 2.32388 11.2418 2.3607 11.275Z" fill="#4D4D4D"/>
</svg>
