<svg width="29" height="28" viewBox="0 0 29 28" fill="none" xmlns="http://www.w3.org/2000/svg">
<mask id="path-1-inside-1_74_717" fill="white">
<path d="M7.97359 3.40124C12.7225 -1.22155 20.3196 -1.1192 24.9423 3.62975C29.5649 8.37871 29.4627 15.9758 24.7138 20.5985C20.7069 24.4988 14.6721 25.0358 10.1074 22.2557L5.09273 27.1385C3.9055 28.2942 2.00624 28.2682 0.850546 27.0809C-0.305148 25.8937 -0.28005 23.9944 0.907187 22.8387L5.92281 17.9559C3.26765 13.3182 3.96718 7.30128 7.97359 3.40124Z"/>
</mask>
<path d="M7.97359 3.40124L6.57854 1.96812L6.57853 1.96813L7.97359 3.40124ZM24.9423 3.62975L26.3755 2.23473L26.3755 2.2347L24.9423 3.62975ZM24.7138 20.5985L26.1089 22.0316L26.1089 22.0316L24.7138 20.5985ZM10.1074 22.2557L11.1477 20.5476L9.8232 19.7409L8.71213 20.8228L10.1074 22.2557ZM5.09273 27.1385L6.48778 28.5717L6.48799 28.5715L5.09273 27.1385ZM0.850546 27.0809L-0.582577 28.476H-0.582576L0.850546 27.0809ZM0.907187 22.8387L2.30224 24.2719L2.3023 24.2718L0.907187 22.8387ZM5.92281 17.9559L7.31792 19.389L8.42872 18.3076L7.65849 16.9622L5.92281 17.9559ZM7.97359 3.40124L9.36864 4.83436C13.3261 0.982056 19.6569 1.06733 23.5092 5.0248L24.9423 3.62975L26.3755 2.2347C20.9822 -3.30572 12.119 -3.42515 6.57854 1.96812L7.97359 3.40124ZM24.9423 3.62975L23.5092 5.02477C27.3614 8.98226 27.2762 15.3131 23.3188 19.1654L24.7138 20.5985L26.1089 22.0316C31.6493 16.6384 31.7685 7.77517 26.3755 2.23473L24.9423 3.62975ZM24.7138 20.5985L23.3188 19.1654C19.9816 22.4138 14.9519 22.8645 11.1477 20.5476L10.1074 22.2557L9.06708 23.9639C14.3923 27.2071 21.4322 26.5839 26.1089 22.0316L24.7138 20.5985ZM10.1074 22.2557L8.71213 20.8228L3.69748 25.7056L5.09273 27.1385L6.48799 28.5715L11.5026 23.6887L10.1074 22.2557ZM5.09273 27.1385L3.69769 25.7054C3.30239 26.0902 2.66934 26.0821 2.28367 25.6859L0.850546 27.0809L-0.582576 28.476C1.34315 30.4543 4.50861 30.4983 6.48778 28.5717L5.09273 27.1385ZM0.850546 27.0809L2.28367 25.6859C1.89804 25.2897 1.9069 24.6567 2.30224 24.2719L0.907187 22.8387L-0.487862 21.4056C-2.467 23.3322 -2.50833 26.4977 -0.582577 28.476L0.850546 27.0809ZM0.907187 22.8387L2.3023 24.2718L7.31792 19.389L5.92281 17.9559L4.5277 16.5229L-0.487926 21.4057L0.907187 22.8387ZM5.92281 17.9559L7.65849 16.9622C5.4457 13.0972 6.03185 8.08256 9.36865 4.83435L7.97359 3.40124L6.57853 1.96813C1.9025 6.52 1.08961 13.5392 4.18713 18.9496L5.92281 17.9559Z" fill="#7C7C7C" mask="url(#path-1-inside-1_74_717)"/>
</svg>
