<?xml version="1.0" encoding="UTF-8"?><svg id="Capa_2" xmlns="http://www.w3.org/2000/svg" xmlns:xlink="http://www.w3.org/1999/xlink" viewBox="0 0 260.947 278.636"><defs><linearGradient id="Degradado_sin_nombre_83" x1="51.792" y1="140.137" x2="210.028" y2="140.137" gradientUnits="userSpaceOnUse"><stop offset="0" stop-color="#d40606"/><stop offset=".219" stop-color="#ffa315"/><stop offset=".39" stop-color="#e5fe04"/><stop offset=".625" stop-color="#0abf02"/><stop offset=".826" stop-color="#081a9a"/><stop offset="1" stop-color="#76008a"/></linearGradient></defs><g id="Black_copia"><path d="M130.91,247.66h0c-43.696,0-79.118-33.507-79.118-74.84v-65.367c0-41.333,35.422-74.84,79.118-74.84h0c43.696,0,79.118,33.507,79.118,74.84v65.367c0,41.333-35.422,74.84-79.118,74.84ZM130.91,48.759c-34.269,0-62.05,26.279-62.05,58.695v65.367c0,32.416,27.781,58.695,62.05,58.695h0c34.269,0,62.05-26.279,62.05-58.695v-65.367c0-32.416-27.781-58.695-62.05-58.695h0Z" style="fill:url(#Degradado_sin_nombre_83);"/><path d="M242.151,42.529l-28.936-25.891C201.226,5.909,185.319,0,168.421,0h-75.895c-16.896,0-32.805,5.909-44.794,16.637l-28.938,25.893C6.85,53.217,0,68.05,0,83.227v112.207c0,15.175,6.85,30.009,18.794,40.699l28.91,25.866c11.989,10.729,27.896,16.638,44.794,16.638h75.95c16.896,0,32.805-5.909,44.794-16.636l28.91-25.868c11.946-10.688,18.796-25.522,18.796-40.699v-112.207c0-15.177-6.85-30.011-18.796-40.697ZM230.424,54.259c.654.585,1.277,1.188,1.886,1.801l-13.293,1.042c-6.979.503-13.617-1.883-18.209-6.523-4.117-4.161-5.932-9.458-5.13-14.797l1.763-10.615c1.412.995,2.768,2.056,4.044,3.197l28.94,25.894ZM30.521,54.259l28.938-25.893c1.34-1.199,2.768-2.308,4.256-3.345l1.882,10.405c.905,5.487-.862,10.83-4.974,15.047-4.589,4.706-11.269,7.114-18.234,6.633l-13.752-1.049c.608-.612,1.231-1.214,1.883-1.798ZM30.523,224.404c-.512-.458-1.008-.926-1.492-1.401l13.838-.713c6.969-.347,13.479,2.174,17.927,6.869,3.99,4.211,5.68,9.51,4.782,14.797l-1.817,9.709c-1.515-1.051-2.967-2.177-4.328-3.395l-28.91-25.866ZM92.498,262.492c-4.332,0-8.625-.561-12.753-1.61l2.663-14.237c1.728-10.164-1.515-20.466-8.9-28.261-7.9-8.34-19.356-12.799-31.531-12.217l-22.938,1.183c-1.298-3.817-1.97-7.823-1.97-11.916v-112.207c0-4.021.653-7.955,1.906-11.71l22.099,1.686c1.033.073,2.062.109,3.085.109,11.119,0,21.558-4.246,29.013-11.891,7.604-7.798,10.991-18.18,9.272-28.598l-2.723-15.054c4.145-1.058,8.456-1.623,12.806-1.623h75.895c4.406,0,8.772.578,12.965,1.663l-2.588,15.586c-1.54,10.243,1.94,20.529,9.549,28.218,7.442,7.522,17.807,11.698,28.87,11.698,1.042,0,2.092-.038,3.145-.114l21.607-1.695c1.256,3.76,1.91,7.699,1.91,11.725v112.207c0,3.709-.564,7.341-1.633,10.831l-23.112-.108c-11.921-.527-23.271,3.863-31.13,12.033-7.389,7.686-10.727,17.887-9.14,28.113l2.501,14.539c-4.179,1.077-8.529,1.651-12.919,1.651h-75.95ZM230.424,224.402l-28.91,25.868c-1.297,1.161-2.678,2.238-4.115,3.247l-1.666-9.683c-.835-5.378.905-10.628,4.9-14.782,4.45-4.631,10.94-7.093,17.842-6.764l14.07.07c-.682.697-1.382,1.383-2.121,2.044Z"/></g></svg>