<?xml version="1.0" encoding="UTF-8"?><svg id="Capa_2" xmlns="http://www.w3.org/2000/svg" xmlns:xlink="http://www.w3.org/1999/xlink" viewBox="0 0 1249.274 401.182"><defs><linearGradient id="Degradado_sin_nombre_83" x1="271.296" y1="201.41" x2="429.532" y2="201.41" gradientUnits="userSpaceOnUse"><stop offset="0" stop-color="#d40606"/><stop offset=".219" stop-color="#ffa315"/><stop offset=".39" stop-color="#e5fe04"/><stop offset=".625" stop-color="#0abf02"/><stop offset=".826" stop-color="#081a9a"/><stop offset="1" stop-color="#76008a"/></linearGradient></defs><g id="White"><path d="M165.887,105.897v194.709c0,8.397-6.807,15.203-15.203,15.203h-63.526c-8.397,0-15.203-6.807-15.203-15.203V105.897c0-8.397-6.807-15.203-15.203-15.203H15.203c-8.397,0-15.203-6.807-15.203-15.203V15.203C0,6.807,6.807,0,15.203,0h207.202c8.397,0,15.203,6.807,15.203,15.203v60.287c0,8.397-6.807,15.203-15.203,15.203h-41.316c-8.397,0-15.203,6.807-15.203,15.203Z" style="fill:#fff;"/><path d="M571.156,401.182h-61.392c-6.941,0-12.569-5.627-12.569-12.569v-179.925c0-35.318,9.254-64.087,27.763-86.298,10.643-12.8,24.177-22.98,40.604-30.54,16.427-7.555,33.276-11.337,50.553-11.337,34.393,0,63.393,11.568,86.992,34.704,23.599,23.136,35.398,51.518,35.398,85.141,0,32.702-11.724,60.928-35.167,84.679-23.448,23.755-51.211,35.63-83.29,35.63-3.031,0-6.884-.181-11.562-.542-6.535-.504-11.574-5.975-11.574-12.53v-63.516c0-8.04,7.404-14.271,15.242-12.482,2.014.46,4.029.689,6.043.689,8.943,0,16.618-3.315,23.021-9.949,6.398-6.629,9.602-14.496,9.602-23.599s-3.319-16.849-9.949-23.252c-6.634-6.398-14.576-9.602-23.83-9.602-22.211,0-33.316,15.35-33.316,46.041v176.686c0,6.941-5.627,12.569-12.569,12.569Z" style="fill:#fff;"/><path d="M901.398,247.171v60.629c0,6.528-5.006,11.982-11.512,12.524-2.756.23-5.397.344-7.923.344-34.704,0-63.625-11.412-86.761-34.242-23.136-22.825-34.704-51.438-34.704-85.835,0-33.467,11.684-61.849,35.051-85.141,23.368-23.287,51.785-34.936,85.257-34.936,37.325,0,66.748,10.914,88.265,32.738,21.517,21.828,32.275,51.634,32.275,89.421v100.575c0,6.937-5.624,12.561-12.561,12.561h-61.408c-6.937,0-12.561-5.624-12.561-12.561v-94.328c0-12.182-2.972-21.899-8.907-29.152-5.94-7.248-13.922-10.874-23.946-10.874-9.103,0-16.97,3.319-23.599,9.949-6.634,6.634-9.949,14.5-9.949,23.599,0,9.566,3.008,17.432,9.023,23.599,6.015,6.171,13.65,9.254,22.905,9.254,2.211,0,4.376-.171,6.495-.515,7.636-1.236,14.559,4.654,14.559,12.39Z" style="fill:#fff;"/><path d="M1229.406,103.38l-52.347,103.497c-4.228,8.359,1.847,18.238,11.214,18.238h48.434c6.94,0,12.567,5.626,12.567,12.567v65.561c0,6.94-5.626,12.567-12.567,12.567h-189.424c-9.345,0-15.421-9.838-11.236-18.194l52.11-104.049c4.185-8.356-1.891-18.194-11.236-18.194h-40.196c-6.94,0-12.567-5.626-12.567-12.567v-65.098c0-6.94,5.626-12.567,12.567-12.567h181.467c9.367,0,15.442,9.88,11.214,18.238Z" style="fill:#fff;"/><path d="M350.414,308.933h0c-43.696,0-79.118-33.507-79.118-74.84v-65.367c0-41.333,35.422-74.84,79.118-74.84h0c43.696,0,79.118,33.507,79.118,74.84v65.367c0,41.333-35.422,74.84-79.118,74.84ZM350.414,110.031c-34.269,0-62.05,26.279-62.05,58.695v65.367c0,32.416,27.781,58.695,62.05,58.695h0c34.269,0,62.05-26.279,62.05-58.695v-65.367c0-32.416-27.781-58.695-62.05-58.695h0Z" style="fill:url(#Degradado_sin_nombre_83);"/><path d="M461.655,103.802l-28.936-25.891c-11.989-10.729-27.896-16.638-44.794-16.638h-75.895c-16.896,0-32.805,5.909-44.794,16.637l-28.938,25.893c-11.944,10.688-18.794,25.521-18.794,40.697v112.207c0,15.175,6.85,30.009,18.794,40.699l28.91,25.866c11.989,10.729,27.896,16.638,44.794,16.638h75.95c16.896,0,32.805-5.909,44.794-16.636l28.91-25.868c11.946-10.688,18.796-25.522,18.796-40.699v-112.207c0-15.177-6.85-30.011-18.796-40.697ZM449.928,115.532c.654.585,1.277,1.188,1.886,1.801l-13.293,1.042c-6.979.503-13.617-1.883-18.209-6.523-4.117-4.161-5.932-9.458-5.13-14.797l1.763-10.615c1.412.995,2.768,2.056,4.044,3.197l28.94,25.894ZM250.025,115.532l28.938-25.893c1.34-1.199,2.768-2.308,4.256-3.345l1.882,10.405c.905,5.487-.862,10.83-4.974,15.047-4.589,4.706-11.269,7.114-18.234,6.633l-13.752-1.049c.608-.612,1.231-1.214,1.883-1.798ZM250.027,285.676c-.512-.458-1.008-.926-1.492-1.401l13.838-.713c6.969-.347,13.479,2.174,17.927,6.869,3.99,4.211,5.68,9.51,4.782,14.797l-1.817,9.709c-1.515-1.051-2.967-2.177-4.328-3.395l-28.91-25.866ZM312.001,323.764c-4.332,0-8.625-.561-12.753-1.61l2.663-14.237c1.728-10.164-1.515-20.466-8.9-28.261-7.9-8.34-19.356-12.799-31.531-12.217l-22.938,1.183c-1.298-3.817-1.97-7.823-1.97-11.916v-112.207c0-4.021.653-7.955,1.906-11.71l22.099,1.686c1.033.073,2.062.109,3.085.109,11.119,0,21.558-4.246,29.013-11.891,7.604-7.798,10.991-18.18,9.272-28.598l-2.723-15.054c4.145-1.058,8.456-1.623,12.806-1.623h75.895c4.406,0,8.772.578,12.965,1.663l-2.588,15.586c-1.54,10.243,1.94,20.529,9.549,28.218,7.442,7.522,17.807,11.698,28.87,11.698,1.042,0,2.092-.038,3.145-.114l21.607-1.695c1.256,3.76,1.91,7.699,1.91,11.725v112.207c0,3.709-.564,7.341-1.633,10.831l-23.112-.108c-11.921-.527-23.271,3.863-31.13,12.033-7.389,7.686-10.727,17.887-9.14,28.113l2.501,14.539c-4.179,1.077-8.529,1.651-12.919,1.651h-75.95ZM449.928,285.675l-28.91,25.868c-1.297,1.161-2.678,2.238-4.115,3.247l-1.666-9.683c-.835-5.378.905-10.628,4.9-14.782,4.45-4.631,10.94-7.093,17.842-6.764l14.07.07c-.682.697-1.382,1.383-2.121,2.044Z" style="fill:#fff;"/></g></svg>
